<svg version="1.1" height="56px" width="128px" xmlns="http://www.w3.org/2000/svg" viewBox="0 0 128 56" data-reactid="16"><g stroke="none" stroke-width="1px" fill-rule="evenodd" data-reactid="17" fill="#000000"><path d="M9.21162019,12.9230769 C12.9726257,12.9230769 15.5632754,11.5322802 15.5632754,7.55357143 L15.5632754,0 L13.1319963,0 C12.9199702,0 12.8132551,0.103708791 12.8132551,0.311813187 L12.8132551,7.43612637 C12.8132551,9.81593407 11.736275,10.8035714 9.21162019,10.8035714 C6.68696535,10.8035714 5.60998523,9.81593407 5.60998523,7.43612637 L5.60998523,0 L3.17800405,0 C2.9652759,0 2.85856079,0.103708791 2.85856079,0.311813187 L2.85856079,7.55357143 C2.85856079,11.5322802 5.45061464,12.9230769 9.21162019,12.9230769" id="Fill-1" fill="#262626" data-reactid="18" stroke="none" stroke-width="1px"></path><g id="Group-5" transform="translate(38.431762, 0.000000)" fill="#262626" data-reactid="19" stroke="none" stroke-width="1px"><path d="M1.02330717,12.8396747 L10.3146677,12.8396747 C10.5175857,12.8396747 10.6118997,12.7737471 10.6797772,12.6294004 L11.3964209,10.9083434 C11.4371474,10.8028593 11.3964209,10.7508112 11.2885314,10.7508112 L2.78097764,10.7508112 L2.78097764,8.4780444 C2.78097764,7.69038324 3.22754026,7.33506825 4.43147308,7.33506825 L8.12329557,7.33506825 C8.32621362,7.33506825 8.42124215,7.26983464 8.48840516,7.12548792 L9.17861235,5.47035853 C9.21862436,5.36487439 9.17861235,5.31213232 9.07000832,5.31213232 L2.78097764,5.31213232 L2.78097764,2.09417214 L10.3146677,2.09417214 C10.5175857,2.09417214 10.6118997,2.02824455 10.6797772,1.88320386 L11.3964209,0.162840853 C11.4371474,0.0580506902 11.3964209,0.00461464666 11.2885314,0.00461464666 L1.32053925,0.00461464666 C0.386687503,0.00461464666 0.0358679096,0.280816534 0.0358679096,0.89845392 L0.0358679096,12.0776906 C0.0358679096,12.6037233 0.305948982,12.8396747 1.02330717,12.8396747" id="Fill-3" data-reactid="20" stroke="none" fill="#262626" stroke-width="1px"></path></g><path d="M23.7055444,8.27677832 C23.7055444,7.50183229 24.1520743,7.15324302 25.3566334,7.15324302 L28.5895099,7.15324302 C30.1448629,7.15324302 30.5778183,7.72149129 30.5778183,8.88391034 C30.5778183,10.0456472 30.1448629,10.5886552 28.5895099,10.5886552 L23.7055444,10.5886552 L23.7055444,8.27677832 Z M23.7055444,2.02672945 L28.0758219,2.02672945 C29.5368678,2.02672945 29.9419597,2.55200097 29.9419597,3.64074556 C29.9419597,4.73017233 29.5368678,5.25476168 28.0758219,5.25476168 L23.7055444,5.25476168 L23.7055444,2.02672945 Z M21.9494316,12.6153846 L28.8731457,12.6153846 C31.4837382,12.6153846 33.3498759,11.6467021 33.3498759,9.12949182 C33.3498759,7.6184835 32.6740083,6.33941325 31.1865278,5.96558365 C32.2682019,5.42257569 32.7147318,4.40273035 32.7147318,3.20210974 C32.7147318,0.412713334 30.3341916,0 27.8729187,0 L22.2466419,0 C21.3128586,0 20.9627792,0.270139637 20.9627792,0.87727165 L20.9627792,11.8670432 C20.9627792,12.3827644 21.2328404,12.6153846 21.9494316,12.6153846 L21.9494316,12.6153846 Z" id="Fill-6" fill="#262626" data-reactid="21" stroke="none" stroke-width="1px"></path><path d="M57.0244005,2.02730199 L61.5658507,2.02730199 C63.262191,2.02730199 63.6361762,2.66032227 63.6361762,3.93864122 C63.6361762,5.22992072 63.262191,5.84998045 61.5658507,5.84998045 L57.0244005,5.84998045 L57.0244005,2.02730199 Z M54.6330122,12.6153846 L57.0244005,12.6153846 L57.0244005,8.93527215 C57.0244005,8.16105015 57.4654207,7.81179759 58.6537057,7.81179759 L61.058501,7.81179759 L63.7032113,12.4093802 C63.7836534,12.5376213 63.8633898,12.6153846 64.0630838,12.6153846 L66.5483212,12.6153846 C66.7219068,12.6153846 66.7219068,12.4735008 66.6682787,12.3964196 L63.7434323,7.54099043 C65.199152,7.18014158 66.3747356,6.24971092 66.3747356,3.88679905 C66.3747356,0.826064171 64.4109606,0 61.1650515,0 L55.5827934,0 C54.6605319,0 54.3126551,0.271489298 54.3126551,0.877906348 L54.3126551,12.3056958 C54.3126551,12.5123824 54.4199112,12.6153846 54.6330122,12.6153846 L54.6330122,12.6153846 Z" id="Fill-8" fill="#262626" data-reactid="22" stroke="none" stroke-width="1px"></path><g id="Group-12" transform="translate(95.920596, 19.076923)" fill="#7dc240" data-reactid="23" stroke="none" stroke-width="1px"><path d="M19.5007235,15.0061369 L17.4841908,14.5178547 C12.0391968,13.1488713 9.41805987,12.3667921 9.41805987,10.4109044 C9.41805987,8.26053149 11.9389036,7.18534502 15.165356,7.18534502 C19.1984215,7.18534502 21.7192652,8.65157109 23.1304825,11.6826452 C23.4327846,12.2688598 23.8360911,12.3667921 24.4414066,12.1709274 L30.2889959,10.0205545 C30.8943113,9.72675756 31.0963202,9.33571796 30.7933069,8.7495034 C28.3734676,3.07908443 23.029478,0.0486999827 15.6689557,0.0486999827 C6.49390958,0.0486999827 1.04891554,4.44737819 1.04891554,10.8026337 C1.04891554,16.5702953 5.3842831,19.1123975 13.7534274,21.2627705 L15.6689557,21.7517424 C20.8116476,23.0227935 23.7357979,23.8048727 23.7357979,26.0531779 C23.7357979,28.5952801 20.8116476,29.7683989 16.8788753,29.7683989 C12.1402012,29.7683989 8.8127444,27.7152686 7.30052267,23.9021153 C7.09851375,23.3159008 6.59420274,23.1207258 5.98959857,23.4138331 L0.746613456,25.858003 C0.242302447,26.1511102 -0.0599996382,26.5421498 0.141297986,27.1290541 C3.06544828,34.0698345 8.30843339,36.9050439 16.6775777,36.9050439 C25.8533351,36.9050439 32.0039378,32.7987834 32.0039378,26.0531779 C32.0039378,19.5034371 27.6678589,16.9613349 19.5007235,15.0061369" id="Fill-10" data-reactid="24" stroke="none" fill="#7dc240" stroke-width="1px"></path></g><path d="M9.10089379,33.7678043 C10.3251436,28.4961388 14.4003185,26.4227092 18.3467738,26.4227092 C23.4594845,26.4227092 26.1661305,28.8713045 26.8684298,33.7678043 L9.10089379,33.7678043 Z M18.3467738,19.0769231 C8.02021569,19.0769231 0,26.5201279 0,37.1954233 C0,48.6549048 8.02021569,56 18.3467738,56 C25.0635277,56 31.2795485,53.8457335 34.5880642,47.3815523 C34.8886455,46.7942764 34.6884938,46.4018378 34.086624,46.1081998 L28.3720435,43.5614948 C27.7765389,43.2961843 27.3698701,43.4640761 27.0685816,44.0513521 C25.564968,46.9898047 22.3568817,48.3612668 18.3467738,48.3612668 C14.9349995,48.3612668 11.4284537,46.8074037 9.74661309,42.8346545 C9.1871783,41.2179183 9.71407959,40.2319855 11.5295905,40.2319855 L34.8886455,40.2319855 C35.4905153,40.2319855 35.8908189,39.8402379 35.8908189,39.252271 L35.8908189,38.0770282 C35.8908189,26.3245995 29.0736355,19.0769231 18.3467738,19.0769231 L18.3467738,19.0769231 Z" id="Fill-13" fill="#7dc240" data-reactid="25" stroke="none" stroke-width="1px"></path><g id="Group-17" transform="translate(37.796526, 19.076923)" fill="#7dc240" data-reactid="26" stroke="none" stroke-width="1px"><path d="M23.8023593,23.9023912 C23.8023593,27.3238152 18.9952311,29.6707425 14.3880468,29.6707425 C10.9826444,29.6707425 8.67940551,28.301759 8.67940551,25.9555215 C8.67940551,23.2182443 11.9844827,22.3382328 14.989291,21.7520182 L23.8023593,19.7961306 L23.8023593,23.9023912 Z M32.616134,25.3686172 L32.616134,13.9312263 C32.616134,4.44765405 26.7068425,0.0482861841 17.1929114,0.0482861841 C8.67940551,0.0482861841 3.07108937,3.76350717 1.06811932,8.84702192 C0.86817557,9.43392614 1.16844445,9.92220839 1.66865707,10.118073 L7.47832999,12.6601752 C8.07886775,12.9532825 8.47946176,12.7574179 8.77973064,12.1712033 C10.4824318,8.55391464 12.986321,7.47872816 17.1929114,7.47872816 C20.8978761,7.47872816 23.6024155,9.04288655 23.6024155,11.3891241 C23.6024155,12.4643106 23.1014964,13.1484575 22.0000395,13.7353617 C20.3976634,14.5174409 17.1929114,14.9084805 12.0848078,16.0815993 C4.9744408,17.74369 0.0662810354,19.7961306 0.0662810354,26.2486288 C0.0662810354,33.3852738 6.17551631,36.9053198 13.1862647,36.9053198 C18.1940431,36.9053198 22.6005772,35.1452968 24.5032222,32.1149124 L24.6035473,32.1149124 C24.9045227,33.1900988 25.3044102,34.5583926 25.9056544,35.5363364 C26.1055982,35.927376 26.5068987,36.122551 27.0071113,36.122551 L34.3181287,36.122551 C35.1193167,36.122551 35.4195856,35.6342687 35.0189915,34.9501218 C33.5169406,32.7011269 32.616134,30.0617821 32.616134,25.3686172 L32.616134,25.3686172 Z" id="Fill-15" data-reactid="27" stroke="none" fill="#7dc240" stroke-width="1px"></path></g><path d="M92.9641897,47.0919874 C92.6642716,46.5062934 92.2641457,46.4092513 91.6636039,46.6047121 C90.0631001,47.2874481 88.6630122,47.579951 87.6623444,47.579951 C85.3617967,47.579951 83.7605872,46.2137906 83.7605872,43.2873856 L83.7605872,29.8239953 C83.7605872,28.3601046 84.7612549,27.3848657 86.2615508,27.3848657 L93.1646055,27.3848657 C93.7644415,27.3848657 94.1645675,26.9946324 94.1645675,26.4089385 L94.1645675,20.9456734 C94.1645675,20.3606677 93.7644415,19.9704345 93.1646055,19.9704345 L83.7605872,19.9704345 L83.7605872,12.3605426 C83.7605872,11.7748486 83.3611669,11.3846154 82.7606252,11.3846154 L75.9584841,11.3846154 C75.3579423,11.3846154 74.9578164,11.7748486 74.9578164,12.3605426 L74.9578164,44.1655824 C74.9578164,51.6777439 79.4594097,55.3846154 86.6616767,55.3846154 C89.563472,55.3846154 92.1639378,54.7018793 94.9648194,53.4334493 C95.5653612,53.2386768 95.7650713,52.6529828 95.4651532,52.1650193 L92.9641897,47.0919874 Z" id="Fill-18" fill="#7dc240" data-reactid="28" stroke="none" stroke-width="1px"></path></g></svg>